<?xml version="1.0" encoding="UTF-8"?>
<svg id="Layer_1" data-name="Layer 1" xmlns="http://www.w3.org/2000/svg" viewBox="0 0 500 500">
  <defs>
    <style>
      .cls-1 {
        fill: #fad706;
      }
    </style>
  </defs>
  <rect class="cls-1" width="500" height="500" rx="78.45" ry="78.45"/>
  <g>
    <path d="M442.87,282.65c-.52.4-1.15.3-1.74.3-3.48.01-6.97,0-10.45,0-18.14,0-36.29,0-54.43,0-.76,0-1.55.17-2.22-.29-.44-.5-.34-1.09-.35-1.63-.25-12.82-2.41-25.31-6.59-37.44-5.06-14.68-12.68-27.9-22.8-39.68-9.63-11.2-20.92-20.37-33.88-27.47-13.15-7.2-27.16-11.81-42.03-13.82-5.25-.71-10.53-1.11-15.81-1.12-7.14-.02-14.25.57-21.3,1.8-12.42,2.17-24.24,6.14-35.42,11.97-8.81,4.59-16.93,10.2-24.36,16.8-7.91,7.04-14.87,14.91-20.73,23.74-9.06,13.64-15.15,28.5-18.2,44.6-1.28,6.77-2.05,13.6-2.07,20.5,0,.39-.02.77-.05,1.16-.02.16-.1.32-.13.41-.28.36-.62.43-.97.44-.47.02-.95.03-1.42.03-21.54,0-43.08,0-64.62,0-.72,0-1.47.13-2.1-.22-.44-.39-.41-.88-.41-1.35,0-3.44-.02-6.88,0-10.32.01-2.12.78-3.07,2.85-3.51,5.97-1.28,11.94-2.54,17.91-3.81,4.33-.92,8.66-1.84,12.99-2.76.59-.12,1.18-.22,1.88-.71.72-3.85,1.37-7.88,2.26-11.85.9-3.99,1.95-7.93,3.17-11.83,1.22-3.89,2.57-7.73,3.93-11.31-.23-.83-.67-1.12-1.05-1.47-4.95-4.46-9.89-8.93-14.84-13.39-2.87-2.59-5.75-5.18-8.64-7.75-1.77-1.57-2.01-2.67-.82-4.74,2.88-5.04,5.8-10.05,8.7-15.08,1.12-1.94,2.22-3.88,3.35-5.81,1.03-1.75,2.13-2.19,4.11-1.61,1.61.47,3.2,1,4.8,1.52,8.46,2.75,16.92,5.51,25.39,8.27.57.18,1.12.45,2.02.29,7.49-9.42,16.1-18.03,25.5-25.52.27-.84.01-1.36-.16-1.88-2.19-6.75-4.38-13.49-6.57-20.24-1.04-3.19-2.07-6.38-3.11-9.57-.08-.25-.16-.49-.22-.74-.47-1.83-.05-2.93,1.61-3.89,4.16-2.42,8.34-4.82,12.51-7.23,2.57-1.48,5.14-2.96,7.71-4.44.41-.24.82-.48,1.24-.69,1.5-.76,2.55-.65,3.74.55,1.18,1.19,2.27,2.47,3.39,3.71,3.6,3.99,7.19,7.99,10.78,11.98,2.5,2.78,5.01,5.56,7.52,8.33.31.35.58.75,1.04.94.54.13,1.02-.11,1.5-.29,10.46-4.06,21.24-6.93,32.33-8.67.38-.06.76-.14,1.14-.23.16-.04.32-.13.45-.19.51-.51.55-1.18.68-1.8,2.11-9.88,4.2-19.76,6.31-29.64.13-.63.26-1.27.47-1.88.48-1.44,1.35-2.09,2.86-2.18.34-.02.69-.02,1.03-.02,7.7,0,15.39,0,23.09,0,2.92,0,3.58.55,4.19,3.42,2.15,10.13,4.3,20.27,6.46,30.4.12.54.18,1.11.54,1.58.4.37.93.4,1.44.48,11.04,1.73,21.79,4.56,32.22,8.57.56.21,1.11.49,1.74.45.57-.16.91-.62,1.28-1.03,4.17-4.63,8.34-9.27,12.51-13.9,2.73-3.04,5.47-6.07,8.21-9.1.23-.26.47-.5.72-.74,1.48-1.46,2.45-1.61,4.26-.57,3.21,1.83,6.4,3.7,9.61,5.55,3.61,2.08,7.23,4.16,10.84,6.25.45.26.9.52,1.31.82.92.67,1.31,1.59,1.11,2.71-.13.72-.36,1.42-.58,2.11-2.97,9.12-5.94,18.23-8.91,27.35-.36,1.1-.76,2.19-.92,3.48,3.02,2.69,6.23,5.2,9.2,8,2.94,2.77,5.83,5.59,8.58,8.56,2.77,3,5.37,6.14,7.93,9.17.91.24,1.58-.12,2.27-.34,6.01-1.94,12.02-3.91,18.03-5.87,3.72-1.21,7.44-2.42,11.16-3.63.2-.07.41-.13.62-.19,2.12-.6,3.19-.19,4.3,1.73,2.7,4.65,5.37,9.31,8.06,13.96,1.33,2.31,2.68,4.61,3.99,6.93,1.04,1.85.92,2.9-.65,4.35-3.16,2.92-6.36,5.78-9.55,8.66-3.93,3.54-7.86,7.07-11.79,10.61-.93.83-1.85,1.67-2.77,2.51-.25.23-.51.47-.65,1.05,2.09,5.57,4.08,11.37,5.66,17.31,1.57,5.89,2.71,11.88,3.8,17.88.57.35,1.14.41,1.68.53,9.97,2.12,19.93,4.24,29.9,6.36.76.16,1.52.29,2.24.61.94.41,1.55,1.11,1.56,2.17.02,3.91,0,7.83,0,11.74,0,.26-.05.51-.3.83ZM213.65,152.02c-.05-4.96-4.33-9.17-9.31-9.15-5.04.02-9.28,4.3-9.26,9.34.03,5.01,4.39,9.31,9.37,9.23,5.04-.08,9.24-4.38,9.19-9.42ZM131.33,204.21c-5.12-.02-9.3,4.13-9.3,9.23,0,5.04,4.12,9.21,9.16,9.25,5.11.04,9.33-4.09,9.38-9.17.05-5.05-4.15-9.28-9.24-9.3ZM308.96,152.2c.02-5.15-4.07-9.3-9.19-9.33-5.06-.03-9.27,4.18-9.28,9.27,0,5.01,4.15,9.22,9.16,9.28,5.08.06,9.29-4.12,9.31-9.23ZM372.75,222.69c5.07.02,9.33-4.17,9.35-9.22.02-4.99-4.16-9.21-9.17-9.26-5.2-.05-9.42,4.12-9.39,9.27.02,5.05,4.16,9.18,9.21,9.2Z"/>
    <path d="M219.39,187.92c1.16-.44,10.74-.45,11.94-.04.45.49.32,1.12.34,1.71.07,1.41-.27,2.82-.03,4.24.32,1.87,1.89,2.63,3.5,1.6,2.49-1.61,4.95-3.26,7.44-4.88.68-.44,1.44-.79,2.1-1.25,2.32-1.61,4.88-1.71,7.54-1.29,4.31.67,8.47,1.89,12.53,3.47,5.17,2.01,10.29,4.13,15.12,6.89.48.28.96.58,1.43.87,2.24,1.41,3.73,3.34,4.43,5.94.93,3.5,1.53,7.05,1.89,10.65.31,3.08.32,6.18.32,9.27,0,15.73,0,31.46,0,47.19,0,.6,0,1.2-.01,1.8-.09,2.44-1.62,4.34-3.99,4.92-.62.15-1.27.26-1.91.29-2.36.12-4.72.28-7.08.28-15.26.03-30.52.02-45.78,0-2.41,0-4.8-.22-7.21-.31-2.9-.11-4.84-1.67-5.47-4.08-.14-.55-.16-1.1-.16-1.66,0-19.6,0-39.2-.01-58.8,0-1.65.45-3.05,1.85-4.03.63-.44.87-1.04.89-1.76.01-.52.02-1.03.02-1.55,0-5.8,0-11.6,0-17.4,0-.68-.11-1.38.3-2.08ZM277.68,211.96c.08-.97-.15-2.29-.21-3.62-.04-.88-.42-1.57-1.13-2.07-.7-.49-1.4-1-2.15-1.42-4.8-2.73-9.89-4.8-15.09-6.62-2.19-.77-4.44-1.34-6.71-1.82-1.6-.34-2.96-.05-4.18,1.04-.96.86-1.97,1.66-2.95,2.5-.26.22-.5.47-.71.74-1.08,1.41-.76,2.94.79,3.79.41.23.85.4,1.29.59,8.82,3.76,17.63,7.51,26.45,11.26.4.17.79.34,1.2.47,1.9.62,3.28-.3,3.39-2.28.04-.73,0-1.46,0-2.55Z"/>
    <path d="M442.81,356.58c.45.51.38,1.04.38,1.55,0,4.6,0,9.2,0,13.8,0,.47.04.95-.25,1.37-.38.45-.92.43-1.43.43-7.35,0-14.7,0-22.06.02-1.16,0-1.79-.48-2.24-1.53-2.97-7-5.98-13.99-8.99-20.98-1.47-3.44-2.95-6.88-4.43-10.31-.21-.49-.35-1.07-.91-1.24-.46.08-.56.39-.58.68-.05.6-.07,1.2-.07,1.8,0,9.67,0,19.35,0,29.02,0,.72.13,1.47-.28,2.1-.43.46-.96.44-1.47.44-7.22,0-14.45,0-21.67,0-.47,0-.95.02-1.37-.27-.44-.38-.45-.91-.45-1.43,0-4.69,0-9.37,0-14.06,0-.47,0-.95.35-1.3.34-.32.73-.33,1.12-.34.52-.01,1.03,0,1.55-.02,1.67-.04,2.04-.4,2.12-2.05.02-.43.02-.86.02-1.29,0-13.89,0-27.77,0-41.66,0-.52.01-1.03-.03-1.55-.1-1.27-.5-1.67-1.76-1.77-.51-.04-1.03-.02-1.55-.04-.47-.01-.95,0-1.36-.29-.44-.38-.45-.91-.45-1.43,0-4.64,0-9.29,0-13.93,0-.47,0-.95.32-1.35.4-.43.93-.41,1.44-.41,6.96,0,13.93.02,20.89-.02,1.35,0,1.88.74,2.34,1.8,2.21,5.18,4.45,10.35,6.68,15.52,2.55,5.92,5.1,11.85,7.67,17.76.24.56.35,1.26,1.03,1.48.55-.14.59-.55.62-.93.04-.56.04-1.12.04-1.68,0-10.49,0-20.98,0-31.47,0-.72-.14-1.47.33-2.07.46-.43.99-.39,1.5-.39,7.18,0,14.36,0,21.54,0,.47,0,.95-.03,1.37.26.46.38.43.91.43,1.43,0,4.69,0,9.37,0,14.06,0,.43.01.87-.29,1.28-.53.52-1.25.38-1.92.39-2.66.05-2.89.25-2.89,2.87,0,14.23,0,28.46,0,42.69,0,2.57.21,2.77,2.79,2.8.64,0,1.3-.11,1.92.26Z"/>
    <path d="M207.59,373.44c-1.24.4-15.78.56-23.13.29-.47-.02-.95.01-1.35-.34-.33-.33-.37-.76-.37-1.19,0-4.77,0-9.54,0-14.32,0-.43.03-.86.37-1.25.65-.49,1.45-.3,2.21-.31,2.24-.04,2.56-.32,2.57-2.53,0-14.45,0-28.89,0-43.34,0-.17,0-.34-.01-.52-.09-1.5-.46-1.86-1.96-1.97-.93-.06-1.9.18-2.71-.28-.45-.42-.46-.91-.46-1.38,0-4.73,0-9.46,0-14.19,0-.43.04-.86.35-1.22.49-.45,1.12-.36,1.71-.37,2.45-.01,4.9,0,7.35,0,13.41,0,26.83.02,40.24-.03,1.5,0,2.59.42,3.64,1.5,2.15,2.22,4.41,4.34,6.67,6.46.82.77,1.15,1.63,1.15,2.74-.02,8.3-.03,16.59,0,24.89,0,1.18-.39,2.06-1.29,2.8-.73.6-1.39,1.28-2.07,1.94-.37.36-.72.75-.73,1.32.04.62.46,1,.85,1.4.79.79,1.58,1.59,2.38,2.36.56.54.84,1.18.84,1.95,0,.64.03,1.29.02,1.93-.1,4.77.2,9.54.19,14.31,0,.26,0,.52.04.77.12.92.48,1.29,1.4,1.39.64.06,1.29.03,1.93.05,1.45.05,1.76.32,1.77,1.75.03,2.41.01,4.82.01,7.22,0,2.19.01,4.39,0,6.58-.02,1.51-.33,1.84-1.82,1.85-7.22.02-14.45.02-21.67,0-1.6,0-1.86-.32-1.87-2.06,0-8.56-.05-17.11.03-25.67.02-1.87-.47-3.18-2.07-4.21-.98-.63-1.92-1.06-3.09-1.04-2.75.03-5.5,0-8.25.01-.34,0-.69.01-1.03.07-.91.15-1.27.5-1.38,1.43-.07.59-.06,1.2-.06,1.8,0,9.07,0,18.14,0,27.21,0,.72.12,1.47-.37,2.17ZM207.97,315.66c0,1.85-.02,3.69,0,5.54.03,1.78.44,2.24,2.21,2.26,3.01.04,6.01.01,9.02.01.85,0,1.6-.27,2.25-.82.36-.31.72-.62,1.12-.87.97-.63,1.29-1.51,1.26-2.64-.05-2.19-.09-4.38.01-6.57.07-1.48-.41-2.54-1.64-3.37-.93-.63-1.76-1.3-3-1.28-3.05.05-6.1,0-9.15.02-1.67.01-2.05.39-2.08,2.06-.03,1.89,0,3.78,0,5.67Z"/>
    <path d="M176.74,332.07c0,9.97-.04,19.94.03,29.92.01,1.87-.49,3.3-1.94,4.51-2.08,1.74-3.96,3.69-5.85,5.63-.97,1-2.05,1.41-3.44,1.41-7.87-.03-15.73-.02-23.6-.02-2.92,0-5.85-.04-8.77.01-1.34.02-2.38-.43-3.32-1.38-2.03-2.04-4.11-4.03-6.21-6-1.04-.98-1.51-2.09-1.51-3.53.02-20.33.02-40.66,0-60.99,0-1.44.42-2.55,1.48-3.54,2.27-2.11,4.48-4.27,6.68-6.44.83-.82,1.78-1.11,2.91-1.11,4.64.01,9.29-.02,13.93-.02,6.06,0,12.12.01,18.18-.04,1.39-.01,2.51.36,3.48,1.33,2.32,2.3,4.66,4.58,7,6.86.62.6.92,1.34.92,2.2,0,.56.02,1.12.02,1.68,0,9.84,0,19.69,0,29.53ZM142.18,332.05h0c0,6.41-.01,12.81,0,19.22,0,2.74,2.1,4.88,4.85,4.97,1.5.05,3.01.05,4.51,0,3.03-.09,5.04-2.15,5.09-5.16,0-.39,0-.77,0-1.16,0-5.89,0-11.78,0-17.67,0-6.36,0-12.72,0-19.09,0-3.23-2-5.21-5.21-5.24-1.38-.01-2.75.06-4.13-.02-1.93-.1-3.22.99-4.45,2.24-.43.44-.59,1.05-.63,1.66-.04.56-.05,1.12-.05,1.67,0,6.19,0,12.38,0,18.57Z"/>
    <path d="M370.24,332.18c0,9.84,0,19.69,0,29.53,0,.56-.01,1.12-.02,1.68,0,.81-.28,1.51-.87,2.08-2.5,2.42-5,4.84-7.51,7.26-.52.5-1.15.75-1.86.77-.47.02-.95.03-1.42.03-10.45,0-20.89-.02-31.34.03-1.72,0-3.03-.46-4.22-1.73-1.8-1.9-3.71-3.7-5.66-5.46-1.25-1.13-1.72-2.44-1.72-4.11.04-14.01.02-28.02.02-42.04,0-6.06.04-12.12-.02-18.18-.02-1.72.48-3.05,1.76-4.22,2.19-2,4.3-4.08,6.41-6.17.83-.82,1.78-1.11,2.91-1.11,4.64.01,9.28-.02,13.93-.02,6.06,0,12.12.02,18.18-.04,1.53-.01,2.72.45,3.79,1.55,1.95,2,3.91,3.99,5.97,5.88,1.25,1.15,1.69,2.44,1.68,4.1-.05,10.06-.03,20.11-.03,30.17ZM350.16,332.07h0c0-6.36.02-12.72,0-19.08-.01-3.06-2.03-5.03-5.12-5.06-1.5-.01-3.01,0-4.51,0-.65,0-1.29.08-1.87.41-1.86,1.07-3.21,2.45-2.97,4.83.04.43,0,.86,0,1.29,0,9.46,0,18.91,0,28.37,0,2.84-.03,5.67.02,8.51.04,2.69,2.13,4.81,4.8,4.9,1.63.06,3.27.02,4.9,0,.84,0,1.57-.3,2.29-.75,1.76-1.1,2.53-2.59,2.5-4.73-.09-6.23-.03-12.46-.03-18.7Z"/>
    <path d="M309.29,316.6c-.53.41-1.06.36-1.57.37-5.42,0-10.83,0-16.25,0-.51,0-1.04.05-1.5-.28-.47-.43-.42-1-.43-1.56-.02-1.07-.02-2.15-.03-3.22,0-.88-.39-1.5-1.04-2.1-1.47-1.36-3.1-2.07-5.14-1.84-1.06.12-2.15.05-3.22.02-1.08-.03-1.96.37-2.86.96-1.65,1.07-2.38,2.42-2.22,4.41.15,1.92.06,3.87.03,5.8-.02,1.16.39,2,1.31,2.77,1.35,1.14,2.76,1.67,4.57,1.64,5.8-.09,11.61,0,17.41-.05,1.28,0,2.34.31,3.25,1.22,2.37,2.37,4.77,4.71,7.18,7.05.65.63.79,1.38.79,2.23-.01,3.74,0,7.48,0,11.22,0,5.89-.02,11.78.02,17.67,0,1.25-.34,2.21-1.26,3.08-2.19,2.06-4.32,4.19-6.44,6.33-1,1.01-2.1,1.47-3.55,1.46-10.7-.04-21.41-.04-32.12,0-1.29,0-2.26-.39-3.21-1.28-2.29-2.15-4.48-4.4-6.76-6.55-.88-.83-1.28-1.73-1.27-2.95.05-4.47.02-8.94.02-13.41,0-.55-.05-1.12.24-1.59.41-.48.94-.49,1.45-.49,5.59,0,11.18,0,16.77,0,.43,0,.86.01,1.25.35.41.43.34,1.01.35,1.56.02,1.03.02,2.06.03,3.09.01.83.38,1.44,1,2,1.46,1.34,3.07,2.11,5.13,1.87,1.15-.13,2.32-.06,3.48-.02,1,.03,1.83-.28,2.61-.89,2.21-1.72,2.22-1.7,2.23-4.5,0-1.85-.05-3.7.01-5.55.04-1.32-.43-2.24-1.46-3.1-1.33-1.11-2.71-1.62-4.46-1.57-3.87.1-7.74.03-11.61.03-2.15,0-4.3-.02-6.45,0-.97.01-1.72-.32-2.41-1-2.43-2.37-4.77-4.84-7.29-7.11-.54-.49-.82-1.09-.81-1.82,0-.34-.01-.69-.01-1.03,0-9.37.03-18.74-.03-28.12,0-1.5.43-2.61,1.53-3.62,2.28-2.09,4.48-4.27,6.68-6.44.76-.75,1.59-1.07,2.65-1.07,11.01.02,22.01.02,33.02,0,.86,0,1.58.19,2.22.82,2.45,2.41,4.92,4.8,7.42,7.17.78.74,1.11,1.57,1.1,2.63-.03,4.6,0,9.2-.01,13.8,0,.55.04,1.12-.33,1.64Z"/>
    <path d="M86.71,356.54c.45.51.44.99.45,1.46,0,4.6,0,9.2,0,13.8,0,.43.01.86-.26,1.27-.44.51-1.07.44-1.66.45-2.19.01-4.38,0-6.58,0-6.49,0-12.98,0-19.47,0-.68,0-1.38.12-1.96-.29-.41-.4-.42-.88-.42-1.35,0-4.68,0-9.37,0-14.05,0-.43.02-.87.38-1.26.55-.44,1.26-.29,1.94-.31,2.4-.05,2.66-.3,2.66-2.69,0-14.31,0-28.63,0-42.94,0-2.4-.24-2.63-2.66-2.66-.47,0-.94-.03-1.41-.08-.16-.02-.32-.11-.43-.15-.49-.43-.48-.96-.48-1.47,0-4.69,0-9.37,0-14.06,0-.47,0-.95.39-1.37.52-.43,1.19-.29,1.82-.3,12.16-.03,24.33-.06,36.49-.08,6.15-.01,12.29-.02,18.44-.01.68,0,1.38-.1,1.97.3.45.43.44.96.44,1.47,0,7.56,0,15.13,0,22.69,0,.47,0,.95-.29,1.36-.39.44-.93.41-1.44.41-5.55,0-11.09,0-16.64,0-.43,0-.86,0-1.25-.26-.48-.41-.44-.99-.45-1.54-.01-1.25,0-2.49,0-3.74,0-.43,0-.86-.01-1.29-.07-1.65-.47-2.06-2.07-2.14-.17,0-.34,0-.52,0-3.01,0-6.02,0-9.03,0-.3,0-.6,0-.9.03-1.3.11-1.72.48-1.73,1.76-.03,4-.03,7.99,0,11.99.01,1.32.46,1.74,1.85,1.76,3.14.04,6.28.02,9.41.02.47,0,.95,0,1.42.04.7.06,1.08.47,1.17,1.16.03.26.04.51.04.77,0,4.47,0,8.94,0,13.41,0,.26,0,.52-.04.77-.12.81-.43,1.13-1.24,1.22-.43.05-.86.04-1.29.04-2.88,0-5.76,0-8.64,0-.47,0-.95,0-1.41.07-.79.12-1.12.47-1.24,1.26-.06.38-.05.77-.05,1.16,0,3.52,0,7.05,0,10.57,0,.26,0,.52.02.77.09,1.2.45,1.57,1.67,1.68.51.05,1.03.02,1.55.05.34.02.69.04,1.02.1.16.03.31.13.45.18Z"/>
    <path d="M235.99,395.42c.02.08,0,.2.05.25,1.08,1.04,1.03,2.37,1.03,3.71,0,1.06-.12,2.14.12,3.05.34.52.84.54,1.26,1.01.26,1.32.22,2.79,0,4.2-1.13.54-5.42.62-6.8.17-.46-.44-.36-1.03-.37-1.57-.01-1.98,0-3.95-.01-5.93-.02-1.77-.55-2.31-2.32-2.33-.76,0-1.55-.15-2.25.22-.46.53-.41,1.15-.41,1.74-.01,2.06,0,4.12-.01,6.18,0,.55.07,1.13-.48,1.79-1.99.32-4.14.16-6.32.07-.63-1.61-.38-3.08-.27-4.35.3-.61.8-.69,1.15-1.05.12-4.75.13-9.5.07-14.16-.44-.34-.74-.58-1.14-.88-.3-1.41-.31-2.87-.01-4.2.54-.54,1.08-.5,1.58-.5,4.08,0,8.16,0,12.24,0,.92,0,1.67.29,2.28.98.31.35.66.68.99,1.01.45.45.67.98.67,1.62,0,2.19,0,4.38,0,6.57,0,.58-.14,1.1-.54,1.54-.23.25-.49.49-.51.87ZM226.47,392.45c.65.48,1.22.43,1.77.44,3.14.1,3.15-1.08,2.98-3.43-.06-.8-.58-1.39-1.36-1.49-1.05-.14-2.12-.21-3.25.13-.54,1.45-.37,2.9-.14,4.34Z"/>
    <path d="M83.72,388.25c-.32-.19-.69-.41-1.14-.68-.24-1.44-.26-2.91.05-4.55,2.82-.31,5.56-.23,8.23-.06.55,1.12.63,3.07.25,4.53-.24.41-.75.43-1.09.81-.27.34-.25.82-.25,1.29,0,3.7-.02,7.39,0,11.09.01,1.76.57,2.28,2.35,2.3.39,0,.78,0,1.16-.06.88-.15,1.45-.66,1.47-1.54.06-4.25.16-8.51-.05-12.76,0-.08-.06-.16-.08-.22-.25-.47-.85-.45-1.25-1.05-.16-1.25-.18-2.68.01-3.97.25-.32.43-.46.65-.47,2.27-.18,4.55-.07,6.83-.07.35,0,.69.06,1.09.44.35,1.33.16,2.8.08,4.24-.49.29-.85.51-1.18.71-.36.59-.26,1.21-.27,1.8,0,4.56,0,9.11,0,13.67,0,2.52-1.83,4.35-4.34,4.36-2.62.01-5.24.01-7.87,0-2.59-.01-4.38-1.83-4.38-4.46,0-4.51,0-9.03,0-13.54,0-.59.08-1.21-.25-1.82Z"/>
    <path d="M338.94,388.4c-.36-.46-.87-.46-1.12-.84-.32-1.15-.32-3.18,0-4.3.14-.17.32-.31.54-.33,2.27-.18,4.55-.07,6.83-.07.34,0,.69.05,1.09.46.29,1.32.22,2.79.03,4.25-.45.27-.81.48-1.14.68-.35.6-.26,1.21-.26,1.8,0,4.56,0,9.11,0,13.67,0,2.51-1.83,4.35-4.35,4.36-2.62.01-5.24.01-7.87,0-2.59-.01-4.37-1.83-4.38-4.46,0-4.51,0-9.03,0-13.54,0-.59.08-1.21-.25-1.82-.32-.19-.68-.41-1.14-.68-.24-1.44-.26-2.91.05-4.55,2.82-.31,5.56-.23,8.36-.05.54,1.59.34,3.06.22,4.35-.34.59-.85.6-1.21,1.02-.25.31-.23.8-.23,1.26,0,3.7-.02,7.39,0,11.09.01,1.76.57,2.28,2.35,2.3.39,0,.78,0,1.16-.06.88-.15,1.45-.67,1.46-1.54.08-4.21.11-8.42-.02-12.63,0-.12-.07-.24-.11-.36Z"/>
    <path d="M209.8,383.26c.26,1.38.18,2.82.06,4.08-.34.58-.85.59-1.12.87-.3.49-.15.97-.06,1.42.81,4,1.62,8,2.45,12,.07.33.2.65.26.82.35.52.86.52,1.29,1.01.33,1.3.27,2.76.02,4.17-1.13.58-6.85.65-8.3.11-.48-1.4-.31-2.86-.12-4.3.37-.29.67-.53.99-.78.27-.69.01-1.31-.26-2-1.24-.46-2.44-.36-3.62-.08-.53.64-.56,1.31-.52,1.85.28.58.83.55,1.22,1.09.22,1.28.22,2.75-.02,4.16-1.15.53-7,.6-8.35.14-.46-.95-.54-2.88-.18-4.37.26-.45.84-.42,1.26-.76,1.11-4.71,2.05-9.45,2.88-14.22-.25-.47-.79-.5-1.15-1.11-.22-1.23-.29-2.69.07-4.03.55-.51,1.09-.46,1.59-.46,3.35,0,6.7,0,10.05,0,.47,0,.95-.03,1.56.42ZM204.25,396.9c.15-1.48-.64-5.81-1.31-6.79-.57,2.31-.92,4.5-1.15,6.72.9.51,1.64.55,2.46.06Z"/>
    <path d="M77.53,402.71c.36.18.73.37,1.08.54.4,1.17.4,3.32.02,4.45-1.02.48-6.86.55-8.35.06-.47-1.4-.26-2.87-.16-4.15.31-.61.85-.6,1.13-.98.22-.68.08-1.32-.34-2.02-1.16-.43-2.37-.33-3.57-.07-.51.68-.64,1.36-.44,2.15.32.2.64.4,1.04.65.29,1.44.31,2.9,0,4.31-1.14.52-6.69.6-8.23.13-.57-1.42-.34-2.92-.14-4.41.44-.28.81-.5,1.3-.81.99-4.68,2.01-9.45,2.79-14.26-.35-.39-.84-.36-1.09-.73-.38-1.07-.39-3.2,0-4.37.4-.42.94-.37,1.44-.37,3.35,0,6.7,0,10.06,0,.47,0,.95-.02,1.52.34.52,1.34.25,2.81.18,4.08-.3.63-.83.64-1.04.89-.32.55-.18,1.01-.09,1.47.8,3.96,1.62,7.92,2.42,11.87.09.42.18.84.48,1.22ZM67.77,396.92c.97.43,1.69.47,2.49-.02.23-1.15-.17-2.26-.38-3.38-.21-1.09-.16-2.27-.87-3.27-.65,2.17-1.03,4.37-1.23,6.66Z"/>
    <path d="M149.67,395.59c0,2.79.01,5.59,0,8.38-.02,2.35-1.78,4.09-4.15,4.11-2.62.01-5.24.02-7.86,0-2.1-.02-3.94-1.83-3.95-3.91-.02-5.8-.02-11.6,0-17.4,0-2.08,1.85-3.89,3.95-3.91,2.71-.02,5.42-.03,8.12,0,2.03.02,3.86,1.83,3.88,3.84.03,2.96,0,5.93,0,8.9h0ZM139.35,395.36s.02,0,.03,0c0,1.97-.04,3.95.02,5.92.03.98.55,1.47,1.5,1.65,1.31.26,2.49-.09,2.88-.88.11-.22.16-.49.19-.74.04-.34.04-.68.04-1.03,0-3.22,0-6.43,0-9.65,0-.43-.03-.86-.07-1.28-.06-.56-.38-.94-.86-1.21-1.79-.99-3.68.05-3.72,2.07-.03,1.72,0,3.43,0,5.15Z"/>
    <path d="M284.15,390.59c-1.7.17-3.39.24-4.93-.01-.47-.41-.44-.82-.51-1.2-.16-.82-.69-1.26-1.49-1.4-.51-.09-1.03-.08-1.54.01-.17.03-.34.08-.49.16-.91.45-1.25,1.72-.92,3.36.17.85.75,1.37,1.74,1.42,1.24.06,2.51.17,3.73,0,2.11-.29,3.24,1.02,4.39,2.37.33.38.37.86.37,1.34,0,2.58,0,5.16,0,7.74,0,.74-.24,1.34-.77,1.84-.37.35-.74.72-1.1,1.09-.51.53-1.13.76-1.85.76-2.88,0-5.76,0-8.64,0-.73,0-1.34-.24-1.85-.76-.36-.37-.72-.74-1.1-1.09-.53-.5-.8-1.1-.78-1.84.03-1.28-.11-2.56.15-3.96,1.83-.33,3.59-.29,5.18-.07.45.46.43.87.49,1.25.1.56.42.96.92,1.17.87.35,1.78.37,2.63-.02.96-.44.93-1.34.93-2.22,0-.88,0-1.75-.94-2.22-.48-.24-.99-.26-1.51-.27-1.29-.01-2.58,0-3.87-.02-2.06-.05-3.97-2-3.98-4.07-.02-2.36-.02-4.73,0-7.09.02-2,1.93-3.97,3.92-4,2.75-.03,5.5,0,8.25-.01.87,0,1.59.27,2.18.92.37.41.78.8,1.17,1.2.27.29.48.62.51,1.02.07,1.37.15,2.74-.05,4.11-.02.12-.12.22-.28.5Z"/>
    <path d="M304.71,400.4c1.87-.3,3.59-.28,5.17-.06.46.42.43.83.5,1.21.14.77.64,1.2,1.37,1.36.59.13,1.2.14,1.79-.02.73-.19,1.23-.65,1.28-1.44.15-2.26.19-3.5-2.88-3.44-1.16.02-2.32-.02-3.48,0-.87.01-1.59-.26-2.18-.92-.26-.29-.53-.56-.82-.82-.66-.58-.91-1.3-.9-2.18.03-2.45.03-4.9,0-7.35,0-.88.32-1.53.88-2.19,1.08-1.27,2.33-1.86,4.05-1.76,2.31.13,4.64.02,6.96.04,2.32.02,4.2,1.92,4.19,4.25,0,1.1.18,2.22-.23,3.4-1.75.37-3.47.25-5.05.1-.52-.43-.47-.9-.56-1.31-.15-.65-.57-1.06-1.18-1.24-.67-.19-1.37-.2-2.04,0-1.03.3-1.34,1.08-1.24,2.92.06,1.16.52,1.76,1.5,1.94.34.06.68.06,1.03.06,1.29,0,2.58.03,3.87,0,.88-.03,1.6.25,2.16.92.03.03.06.07.09.09,1.32.98,1.77,2.28,1.67,3.93-.13,2.06-.02,4.12-.04,6.19-.02,1.99-1.95,3.96-3.94,3.98-2.75.03-5.5,0-8.25.01-.87,0-1.59-.28-2.17-.93-.35-.38-.73-.73-1.08-1.1-.27-.28-.53-.6-.56-1-.11-1.49-.17-2.99.08-4.65Z"/>
    <path d="M352.4,403.38c.51-.3.87-.52,1.4-.84.08-4.68.06-9.43,0-13.92-.41-.65-.91-.66-1.35-1.12-.3-1.32-.22-2.78-.05-4.13.51-.57,1.05-.53,1.55-.53,4,0,7.99-.02,11.99,0,1.99.01,3.95,1.98,3.98,3.95.03,2.41,0,4.81.01,7.22,0,.87-.23,1.6-.89,2.18-.32.28-.63.59-.91.91-.56.62-1.24.86-2.07.85-1.5-.02-3.01,0-4.51,0-.51,0-1.04-.05-1.66.32-.51,1.34-.29,2.81-.15,4.11.35.56.86.57,1.27,1.07.28,1.3.26,2.77,0,4.17-1.13.54-6.96.62-8.48.13-.45-1.4-.24-2.87-.15-4.39ZM359.79,392.43c.93.47,1.16.51,2.19.45,1.62-.1,2.14-.63,2.17-2.22,0-.38.01-.77-.02-1.16-.08-.82-.53-1.38-1.33-1.52-.92-.15-1.87-.22-2.88.16-.49,1.42-.34,2.88-.13,4.28Z"/>
    <path d="M177.34,398.25c-.53,1.42-.36,2.88-.13,4.2.37.53.89.49,1.34.94.33,1.31.22,2.78.07,4.12-.4.52-.84.56-1.27.55-2.39-.03-4.78.14-7.2-.11-.51-1.63-.37-3.1-.17-4.55.43-.28.78-.52,1.3-.87.18-4.66.08-9.41-.03-14.15-.31-.42-.83-.44-1.24-.92-.31-1.31-.28-2.77-.02-4.09.5-.53.98-.52,1.45-.52,4.04,0,8.08-.02,12.13,0,1.87.01,3.73,1.85,3.76,3.7.04,2.49,0,4.99.02,7.48,0,.92-.3,1.67-.99,2.28-.22.2-.44.41-.64.64-.63.74-1.42,1.05-2.39,1.02-1.42-.04-2.84-.01-4.26,0-.51,0-1.03-.05-1.72.29ZM177.24,392.53c1.11.51,2.1.43,3.06.23.91-.19,1.33-.74,1.36-1.78.03-1.09.27-2.3-1.05-2.92-.12-.05-.24-.1-.37-.11-.94-.07-1.88-.19-2.88.17-.56,1.44-.39,2.89-.13,4.41Z"/>
    <path d="M384.64,407.97c-2.86.16-5.57.21-8.34-.03-.55-1.59-.36-3.06-.22-4.34.34-.59.86-.6,1.13-.96.41-1.2.43-13.04,0-14.4-.32-.21-.67-.44-1.09-.72-.24-1.42-.27-2.85,0-4.15.51-.56,1.04-.53,1.55-.53,4,0,8-.02,12,0,1.94.01,3.77,1.85,3.8,3.8.03,2.45.04,4.9,0,7.35-.03,2-1.99,3.93-3.97,3.96-1.42.02-2.84,0-4.26.01-.51,0-1.03-.05-1.67.23-.72,1.37-.39,2.87-.23,4.2.38.61.98.53,1.41,1.1.21,1.29.24,2.76-.1,4.47ZM383.42,392.57c1.08.45,2.02.39,2.95.21.97-.19,1.4-.74,1.43-1.85.03-1.1.23-2.3-1.11-2.88-.08-.03-.16-.07-.25-.07-.98-.08-1.96-.23-3.03.2-.36,1.44-.39,2.9,0,4.4Z"/>
    <path d="M426.36,388.52c.53,1.37,1.16,2.7,2.01,3.94.88-.68,1.82-2.37,2.33-4.05-.79-1.68-.48-3.42-.37-5.01.25-.31.43-.46.65-.47,2.27-.18,4.55-.07,6.83-.07.35,0,.69.06,1.09.44.3,1.33.23,2.8.04,4.14-.63.65-1.39.33-2.06.76-.36.26-.58.79-.82,1.28-1.35,2.69-2.67,5.39-4.04,8.07-.84,1.63-.67,3.31-.48,4.82.33.6.86.6,1.25,1.14.28,1.29.23,2.75-.05,4.38-2.78.33-5.44.23-8.16.06-.63-1.57-.38-3.04-.27-4.31.32-.61.82-.65,1.21-1.1.33-1.35.49-2.88-.18-4.28-1.51-3.19-3.13-6.32-4.72-9.47-.11-.23-.3-.41-.39-.53-.59-.45-1.28-.22-1.79-.58-.53-1-.59-3.17-.12-4.47,1.02-.48,6.86-.56,8.43-.04.19,1.69.48,3.44-.4,5.34Z"/>
    <path d="M122.15,388.14c-.48-.21-.87-.15-1.22.18-.31,1.12-.34,12.93-.04,14.24.25.39.76.4,1.19.86.31,1.32.23,2.78.03,4.2-1.15.6-7.17.65-8.43.13-.41-1.04-.44-3.14-.05-4.45.32-.2.68-.43,1-.63.36-1.21.39-12.98.05-14.3-.37-.4-.79-.46-1.25-.19-.63.61-.2,1.54-.79,2.32-1.3.37-2.71.28-4.07.05-.55-1.17-.6-5.99-.13-7.31.4-.43.93-.4,1.44-.4,5.29,0,10.57,0,15.86,0,.47,0,.95-.02,1.35.29.51,1.03.59,5.79.12,7.2-.97.48-2.94.53-4.24.11-.63-.61-.11-1.63-.82-2.31Z"/>
    <path d="M255.83,402.64c.4.24.76.45,1.21.71.21,1.46.28,2.92-.09,4.56-2.81.29-5.55.24-8.36.03-.45-1.61-.31-3.08-.18-4.37.35-.57.87-.58,1.14-.93.4-1.21.4-13.12,0-14.34-.35-.33-.74-.37-1.15-.14-.71.61-.19,1.63-.89,2.39-1.26.32-2.64.18-3.95.07-.63-1.22-.66-6.2-.12-7.44.42-.37.95-.33,1.46-.33,5.24,0,10.49,0,15.73,0,.47,0,.95-.02,1.36.26.56,1.06.62,6.01.05,7.41-1.32.36-2.71.23-3.97.08-.8-.72-.27-1.74-.91-2.39-.42-.29-.85-.25-1.25.08-.34,1.05-.41,12.73-.07,14.36Z"/>
    <path d="M407.22,402.8c1.32.27,2.61.35,3.8-.05.56-.74.17-1.57.7-2.35,1.61-.38,3.34-.22,5.01-.08.57,1.1.63,6.12.14,7.41-.41.39-.95.34-1.46.34-4.73,0-9.45,0-14.18,0-.47,0-.95.02-1.36-.27-.44-.95-.51-2.95-.17-4.39.26-.44.85-.43,1.24-.82.14-4.75.12-9.49,0-14.24-.35-.38-.86-.39-1.28-.86-.28-1.31-.22-2.78-.03-4.19,1.16-.6,7.18-.64,8.55-.07.37,1.4.28,2.87.06,4.32-.44.28-.8.5-1.12.7-.42,1.34-.39,13.24.08,14.55Z"/>
  </g>
</svg>